<?xml version="1.0" encoding="UTF-8" standalone="no"?>
<!-- Created with Inkscape (http://www.inkscape.org/) -->

<svg
   xmlns:dc="http://purl.org/dc/elements/1.1/"
   xmlns:cc="http://creativecommons.org/ns#"
   xmlns:rdf="http://www.w3.org/1999/02/22-rdf-syntax-ns#"
   xmlns:svg="http://www.w3.org/2000/svg"
   xmlns="http://www.w3.org/2000/svg"
   xmlns:sodipodi="http://sodipodi.sourceforge.net/DTD/sodipodi-0.dtd"
   xmlns:inkscape="http://www.inkscape.org/namespaces/inkscape"
   id="svg2"
   version="1.1"
   inkscape:version="0.48.4 r9939"
   width="199.52374"
   height="225.8425"
   xml:space="preserve"
   sodipodi:docname="airbnb-2.ai"><metadata
     id="metadata8"><rdf:RDF><cc:Work
         rdf:about=""><dc:format>image/svg+xml</dc:format><dc:type
           rdf:resource="http://purl.org/dc/dcmitype/StillImage" /><dc:title></dc:title></cc:Work></rdf:RDF></metadata><defs
     id="defs6"><clipPath
       clipPathUnits="userSpaceOnUse"
       id="clipPath16"><path
         d="m 0,841.89 595.276,0 L 595.276,0 0,0 0,841.89 z"
         id="path18"
         inkscape:connector-curvature="0" /></clipPath></defs><sodipodi:namedview
     pagecolor="#ffffff"
     bordercolor="#666666"
     borderopacity="1"
     objecttolerance="10"
     gridtolerance="10"
     guidetolerance="10"
     inkscape:pageopacity="0"
     inkscape:pageshadow="2"
     inkscape:window-width="3840"
     inkscape:window-height="2107"
     id="namedview4"
     showgrid="false"
     fit-margin-top="0"
     fit-margin-left="0"
     fit-margin-right="0"
     fit-margin-bottom="0"
     inkscape:zoom="2.5371819"
     inkscape:cx="245.81002"
     inkscape:cy="216.99466"
     inkscape:window-x="0"
     inkscape:window-y="0"
     inkscape:window-maximized="1"
     inkscape:current-layer="g10" /><g
     id="g10"
     inkscape:groupmode="layer"
     inkscape:label="airbnb-2"
     transform="matrix(1.25,0,0,-1.25,-273.3625,639.23875)"><g
       id="g12"><g
         id="g14"
         clip-path="url(#clipPath16)"><path
           d="m 346.842,409.845 c -1.319,-4.549 -4.487,-8.524 -8.631,-10.817 -3.674,-2.054 -8.059,-2.758 -12.201,-2.066 -5.276,0.82 -10.008,3.619 -14.11,6.924 -3.013,2.422 -5.727,5.189 -8.328,8.043 4.106,5.191 7.973,10.624 10.927,16.562 2.578,5.2 4.537,10.834 4.724,16.68 0.104,3.711 -0.594,7.489 -2.327,10.791 -2.269,4.413 -6.333,7.804 -10.994,9.444 -4.353,1.554 -9.192,1.694 -13.633,0.427 -4.188,-1.185 -8.013,-3.701 -10.634,-7.19 -2.307,-3.042 -3.622,-6.782 -3.927,-10.575 -0.469,-5.464 0.9,-10.913 2.971,-15.935 3.079,-7.339 7.598,-13.98 12.589,-20.142 -2.244,-2.602 -4.699,-5.021 -7.306,-7.26 -4.052,-3.428 -8.688,-6.414 -13.94,-7.549 -4.246,-0.953 -8.827,-0.48 -12.721,1.491 -4.561,2.273 -8.063,6.554 -9.384,11.474 -1.01,3.616 -0.786,7.518 0.415,11.06 0.999,2.93 2.354,5.722 3.622,8.541 8.797,19.182 18.039,38.16 27.689,56.927 1.44,2.793 2.858,5.598 4.382,8.346 1.244,2.213 2.691,4.386 4.736,5.939 2.187,1.711 4.971,2.646 7.749,2.583 2.881,0.035 5.743,-1.026 7.946,-2.877 2.176,-1.807 3.646,-4.279 4.966,-6.743 2.984,-5.605 5.849,-11.276 8.717,-16.939 8.179,-16.196 16.047,-32.548 23.582,-49.054 1.138,-2.564 2.358,-5.108 3.125,-7.814 0.937,-3.338 0.968,-6.941 -0.004,-10.271 m -48.393,8.255 c -1.495,1.76 -2.812,3.664 -4.135,5.554 -2.226,3.264 -4.25,6.678 -5.878,10.284 -1.334,2.992 -2.405,6.133 -2.823,9.395 -0.305,2.587 -0.232,5.288 0.718,7.745 0.85,2.304 2.484,4.299 4.554,5.619 4.932,3.182 11.963,2.839 16.431,-1.022 2.262,-1.927 3.614,-4.776 3.954,-7.704 0.444,-3.892 -0.441,-7.802 -1.799,-11.431 -2.567,-6.736 -6.629,-12.774 -11.022,-18.44 m 56.684,-2.312 c -0.039,3.504 -0.86,6.963 -2.137,10.213 -0.986,2.517 -2.131,4.967 -3.249,7.426 -8.895,19.391 -18.235,38.573 -28.003,57.54 -1.374,2.65 -2.719,5.316 -4.17,7.925 -1.426,2.545 -3.086,4.995 -5.235,6.986 -3.429,3.269 -8.03,5.219 -12.752,5.513 l -2.174,0 c -4.861,-0.24 -9.606,-2.28 -13.094,-5.681 -2.07,-1.96 -3.672,-4.351 -5.06,-6.825 -1.432,-2.566 -2.758,-5.19 -4.106,-7.799 -6.557,-12.723 -12.916,-25.548 -19.084,-38.463 -3.676,-7.73 -7.321,-15.473 -10.827,-23.279 -1.454,-3.252 -2.769,-6.615 -3.264,-10.165 -0.917,-5.994 0.398,-12.285 3.6,-17.432 2.76,-4.471 6.903,-8.074 11.732,-10.155 3.754,-1.623 7.9,-2.363 11.983,-2.121 5.483,0.291 10.77,2.26 15.409,5.135 5.175,3.176 9.601,7.401 13.722,11.823 3.832,-4.13 7.933,-8.071 12.667,-11.16 4.572,-3.008 9.785,-5.186 15.268,-5.705 5.955,-0.622 12.125,0.855 17.123,4.169 4.397,2.897 7.868,7.168 9.814,12.059 1.265,3.168 1.897,6.588 1.837,9.996"
           style="fill:#ff7977;fill-opacity:1;fill-rule:nonzero;stroke:none"
           id="path20"
           inkscape:connector-curvature="0" /><path
           d="m 255.749,374.352 c 2.464,0.557 5.156,-1.068 5.796,-3.513 0.795,-2.504 -0.785,-5.413 -3.301,-6.137 -2.458,-0.865 -5.377,0.638 -6.191,3.092 -0.772,2.068 0.054,4.564 1.888,5.787 0.541,0.377 1.167,0.629 1.808,0.771"
           style="fill:#ff7977;fill-opacity:1;fill-rule:nonzero;stroke:none"
           id="path22"
           inkscape:connector-curvature="0" /><path
           d="m 272.391,358.194 c 1.484,1.614 3.575,2.625 5.729,2.947 1.432,0.139 2.892,0.048 4.295,-0.273 -0.018,-2.27 -0.004,-4.539 -0.008,-6.81 -2.209,0.57 -4.601,0.689 -6.769,-0.11 -1.171,-0.427 -2.247,-1.129 -3.1,-2.037 -0.186,-0.158 -0.141,-0.416 -0.158,-0.637 0.013,-6.344 -0.01,-12.691 0.009,-19.035 -0.022,-0.244 0.037,-0.518 -0.071,-0.748 -2.45,-0.056 -4.903,-0.011 -7.354,-0.019 10e-4,9.673 -0.008,19.347 0.006,29.021 2.064,-0.01 4.129,0.008 6.194,-0.004 0.454,0.026 0.938,-0.207 1.104,-0.65 0.163,-0.53 0.111,-1.096 0.123,-1.645"
           style="fill:#ff7977;fill-opacity:1;fill-rule:nonzero;stroke:none"
           id="path24"
           inkscape:connector-curvature="0" /><path
           d="m 325.219,358.169 c 1.961,2.029 4.802,3.027 7.592,3.033 2.947,0.074 5.966,-0.797 8.244,-2.709 1.506,-1.178 2.614,-2.84 3.115,-4.687 0.648,-2.262 0.59,-4.637 0.582,-6.965 0.002,-5.124 0,-10.249 0.002,-15.374 -2.471,0.004 -4.941,-0.017 -7.412,0.011 0.002,5.121 0,10.242 0.002,15.365 0,1.902 0.09,3.956 -0.922,5.65 -0.705,1.217 -2.1,1.822 -3.445,1.963 -2.562,0.41 -5.239,-0.608 -7.004,-2.477 -0.188,-0.187 -0.349,-0.425 -0.328,-0.709 -0.024,-0.792 0.096,-1.587 0.028,-2.38 -0.097,-1.077 0.054,-2.155 0.018,-3.235 -0.037,-2.037 -0.028,-4.072 -0.007,-6.108 -0.14,-2.693 0.104,-5.396 -0.057,-8.085 -2.461,0.008 -4.92,0.002 -7.381,0.003 -10e-4,9.678 -0.017,19.354 0.009,29.03 1.903,-0.014 3.809,0 5.712,-0.006 0.492,0.032 1.03,-0.244 1.157,-0.744 0.116,-0.514 0.081,-1.049 0.095,-1.576"
           style="fill:#ff7977;fill-opacity:1;fill-rule:nonzero;stroke:none"
           id="path26"
           inkscape:connector-curvature="0" /><path
           d="m 253.039,331.466 c -10e-4,9.677 -0.015,19.353 0.005,29.029 2.452,-0.006 4.903,-0.004 7.354,-0.002 0.019,-9.676 0.005,-19.352 0.007,-29.026 -2.455,0 -4.91,0.002 -7.366,-10e-4"
           style="fill:#ff7977;fill-opacity:1;fill-rule:nonzero;stroke:none"
           id="path28"
           inkscape:connector-curvature="0" /><path
           d="m 240.834,340.509 c -1.5,-1.797 -3.843,-2.858 -6.183,-2.784 -2.508,-0.019 -5.111,0.942 -6.736,2.909 -1.585,1.878 -2.064,4.49 -1.704,6.877 0.269,1.931 1.254,3.785 2.81,4.984 1.411,1.113 3.19,1.688 4.971,1.812 2.653,0.231 5.45,-0.939 7.046,-3.08 0.09,-3.154 0.002,-6.316 0.042,-9.476 -0.026,-0.416 0.089,-0.916 -0.246,-1.242 m 7.638,19.982 c -1.943,0.004 -3.886,-0.006 -5.831,0.012 -0.514,0.003 -1.17,-0.023 -1.421,-0.563 -0.225,-0.554 -0.139,-1.17 -0.159,-1.754 -1.617,1.721 -3.896,2.743 -6.234,2.965 -3.61,0.324 -7.351,-0.677 -10.25,-2.869 -2.388,-1.764 -4.153,-4.315 -5.077,-7.125 -0.445,-1.317 -0.668,-2.699 -0.81,-4.08 l 0,-1.987 c 0.207,-4.159 2.057,-8.273 5.284,-10.954 2.434,-2.063 5.562,-3.215 8.731,-3.415 l 1.652,0 c 2.512,0.169 4.992,1.208 6.706,3.08 0.016,-0.587 -0.067,-1.209 0.153,-1.771 0.229,-0.455 0.769,-0.58 1.238,-0.562 2.005,0.005 4.013,-0.002 6.02,0.009 0,9.669 0.006,19.342 -0.002,29.014"
           style="fill:#ff7977;fill-opacity:1;fill-rule:nonzero;stroke:none"
           id="path30"
           inkscape:connector-curvature="0" /><path
           d="m 305.365,339.975 c -1.656,-1.537 -3.948,-2.275 -6.185,-2.252 -2.336,-0.054 -4.669,1.018 -6.148,2.826 -0.183,0.188 -0.243,0.442 -0.228,0.692 0.002,3.322 0.005,6.643 0,9.963 1.42,1.852 3.693,3.006 6.018,3.125 2.358,0.068 4.83,-0.623 6.56,-2.285 1.647,-1.529 2.452,-3.822 2.4,-6.043 0.048,-2.219 -0.778,-4.496 -2.417,-6.026 m 8.645,12.213 c -1.142,2.793 -3.168,5.221 -5.737,6.805 -2.644,1.647 -5.816,2.391 -8.918,2.18 -2.448,-0.161 -4.841,-1.206 -6.541,-2.992 -0.01,5.421 0,10.839 -0.005,16.259 -2.472,-10e-4 -4.946,0.012 -7.418,-0.006 0.013,-14.318 -0.021,-28.644 0.018,-42.96 2.047,-0.005 4.096,-0.01 6.144,-0.005 0.509,-0.04 1.058,0.239 1.198,0.755 0.101,0.523 0.064,1.064 0.067,1.595 1.718,-1.91 4.242,-2.947 6.78,-3.1 l 1.513,0 c 4.11,0.206 8.139,2.132 10.718,5.36 3.612,4.43 4.317,10.867 2.181,16.109"
           style="fill:#ff7977;fill-opacity:1;fill-rule:nonzero;stroke:none"
           id="path32"
           inkscape:connector-curvature="0" /><path
           d="m 369.227,340.809 c -1.957,-2.519 -5.411,-3.456 -8.473,-2.967 -1.865,0.372 -3.674,1.379 -4.777,2.95 -0.123,1.22 -0.012,2.453 -0.049,3.678 0.026,2.253 -0.056,4.513 0.037,6.761 1.122,1.547 2.918,2.54 4.765,2.95 3.42,0.632 7.397,-0.723 9.125,-3.881 1.575,-2.924 1.418,-6.829 -0.628,-9.491 m 5.776,14.971 c -3.144,4.004 -8.519,6.025 -13.53,5.276 -2.093,-0.33 -4.077,-1.334 -5.539,-2.874 -0.016,5.418 0,10.836 -0.008,16.256 -2.468,0.002 -4.934,0.004 -7.401,-0.002 -0.002,-14.32 0,-28.642 0,-42.963 1.946,-0.015 3.896,0.003 5.841,-0.015 0.511,-0.008 1.15,0.033 1.411,0.555 0.228,0.564 0.143,1.193 0.159,1.786 1.705,-1.868 4.173,-2.9 6.671,-3.082 l 1.666,0 c 4.065,0.221 8.038,2.118 10.612,5.298 2.101,2.536 3.236,5.784 3.424,9.054 l 0,1.942 c -0.233,3.158 -1.299,6.294 -3.306,8.769"
           style="fill:#ff7977;fill-opacity:1;fill-rule:nonzero;stroke:none"
           id="path34"
           inkscape:connector-curvature="0" /></g></g></g></svg>