<?xml version="1.0" encoding="UTF-8" standalone="no"?>
<!-- Created with Inkscape (http://www.inkscape.org/) -->

<svg
   xmlns:dc="http://purl.org/dc/elements/1.1/"
   xmlns:cc="http://creativecommons.org/ns#"
   xmlns:rdf="http://www.w3.org/1999/02/22-rdf-syntax-ns#"
   xmlns:svg="http://www.w3.org/2000/svg"
   xmlns="http://www.w3.org/2000/svg"
   xmlns:sodipodi="http://sodipodi.sourceforge.net/DTD/sodipodi-0.dtd"
   xmlns:inkscape="http://www.inkscape.org/namespaces/inkscape"
   id="svg2"
   version="1.1"
   inkscape:version="0.48.4 r9939"
   width="141.80566"
   height="152.45763"
   xml:space="preserve"
   sodipodi:docname="airbnb-2.svg"><metadata
     id="metadata8"><rdf:RDF><cc:Work
         rdf:about=""><dc:format>image/svg+xml</dc:format><dc:type
           rdf:resource="http://purl.org/dc/dcmitype/StillImage" /><dc:title></dc:title></cc:Work></rdf:RDF></metadata><defs
     id="defs6"><clipPath
       clipPathUnits="userSpaceOnUse"
       id="clipPath16"><path
         d="m 0,841.89 595.276,0 L 595.276,0 0,0 0,841.89 z"
         id="path18"
         inkscape:connector-curvature="0" /></clipPath></defs><sodipodi:namedview
     pagecolor="#ffffff"
     bordercolor="#666666"
     borderopacity="1"
     objecttolerance="10"
     gridtolerance="10"
     guidetolerance="10"
     inkscape:pageopacity="0"
     inkscape:pageshadow="2"
     inkscape:window-width="3840"
     inkscape:window-height="2107"
     id="namedview4"
     showgrid="false"
     fit-margin-top="0"
     fit-margin-left="0"
     fit-margin-right="0"
     fit-margin-bottom="0"
     inkscape:zoom="2.5371819"
     inkscape:cx="217.05704"
     inkscape:cy="143.60979"
     inkscape:window-x="0"
     inkscape:window-y="0"
     inkscape:window-maximized="1"
     inkscape:current-layer="g10" /><g
     id="g10"
     inkscape:groupmode="layer"
     inkscape:label="airbnb-2"
     transform="matrix(1.25,0,0,-1.25,-302.11547,639.23875)"><path
       d="m 346.842,409.845 c -1.319,-4.549 -4.487,-8.524 -8.631,-10.817 -3.674,-2.054 -8.059,-2.758 -12.201,-2.066 -5.276,0.82 -10.008,3.619 -14.11,6.924 -3.013,2.422 -5.727,5.189 -8.328,8.043 4.106,5.191 7.973,10.624 10.927,16.562 2.578,5.2 4.537,10.834 4.724,16.68 0.104,3.711 -0.594,7.489 -2.327,10.791 -2.269,4.413 -6.333,7.804 -10.994,9.444 -4.353,1.554 -9.192,1.694 -13.633,0.427 -4.188,-1.185 -8.013,-3.701 -10.634,-7.19 -2.307,-3.042 -3.622,-6.782 -3.927,-10.575 -0.469,-5.464 0.9,-10.913 2.971,-15.935 3.079,-7.339 7.598,-13.98 12.589,-20.142 -2.244,-2.602 -4.699,-5.021 -7.306,-7.26 -4.052,-3.428 -8.688,-6.414 -13.94,-7.549 -4.246,-0.953 -8.827,-0.48 -12.721,1.491 -4.561,2.273 -8.063,6.554 -9.384,11.474 -1.01,3.616 -0.786,7.518 0.415,11.06 0.999,2.93 2.354,5.722 3.622,8.541 8.797,19.182 18.039,38.16 27.689,56.927 1.44,2.793 2.858,5.598 4.382,8.346 1.244,2.213 2.691,4.386 4.736,5.939 2.187,1.711 4.971,2.646 7.749,2.583 2.881,0.035 5.743,-1.026 7.946,-2.877 2.176,-1.807 3.646,-4.279 4.966,-6.743 2.984,-5.605 5.849,-11.276 8.717,-16.939 8.179,-16.196 16.047,-32.548 23.582,-49.054 1.138,-2.564 2.358,-5.108 3.125,-7.814 0.937,-3.338 0.968,-6.941 -0.004,-10.271 m -48.393,8.255 c -1.495,1.76 -2.812,3.664 -4.135,5.554 -2.226,3.264 -4.25,6.678 -5.878,10.284 -1.334,2.992 -2.405,6.133 -2.823,9.395 -0.305,2.587 -0.232,5.288 0.718,7.745 0.85,2.304 2.484,4.299 4.554,5.619 4.932,3.182 11.963,2.839 16.431,-1.022 2.262,-1.927 3.614,-4.776 3.954,-7.704 0.444,-3.892 -0.441,-7.802 -1.799,-11.431 -2.567,-6.736 -6.629,-12.774 -11.022,-18.44 m 56.684,-2.312 c -0.039,3.504 -0.86,6.963 -2.137,10.213 -0.986,2.517 -2.131,4.967 -3.249,7.426 -8.895,19.391 -18.235,38.573 -28.003,57.54 -1.374,2.65 -2.719,5.316 -4.17,7.925 -1.426,2.545 -3.086,4.995 -5.235,6.986 -3.429,3.269 -8.03,5.219 -12.752,5.513 l -2.174,0 c -4.861,-0.24 -9.606,-2.28 -13.094,-5.681 -2.07,-1.96 -3.672,-4.351 -5.06,-6.825 -1.432,-2.566 -2.758,-5.19 -4.106,-7.799 -6.557,-12.723 -12.916,-25.548 -19.084,-38.463 -3.676,-7.73 -7.321,-15.473 -10.827,-23.279 -1.454,-3.252 -2.769,-6.615 -3.264,-10.165 -0.917,-5.994 0.398,-12.285 3.6,-17.432 2.76,-4.471 6.903,-8.074 11.732,-10.155 3.754,-1.623 7.9,-2.363 11.983,-2.121 5.483,0.291 10.77,2.26 15.409,5.135 5.175,3.176 9.601,7.401 13.722,11.823 3.832,-4.13 7.933,-8.071 12.667,-11.16 4.572,-3.008 9.785,-5.186 15.268,-5.705 5.955,-0.622 12.125,0.855 17.123,4.169 4.397,2.897 7.868,7.168 9.814,12.059 1.265,3.168 1.897,6.588 1.837,9.996"
       style="fill:#ff7977;fill-opacity:1;fill-rule:nonzero;stroke:none"
       id="path20"
       inkscape:connector-curvature="0" /></g></svg>